<svg xmlns="http://www.w3.org/2000/svg" width="13" height="14">
	<path d="m5.01 6v-.428c0-.058-.021-.108-.064-.151-.042-.042-.093-.064-.151-.064h-.857v-.857c0-.058-.021-.108-.064-.151-.042-.042-.093-.064-.151-.064h-.429c-.058 0-.108.021-.151.064-.042.042-.064.093-.064.151v.857h-.857c-.058 0-.108.021-.151.064-.042.042-.064.093-.064.151v.428c0 .058.021.108.064.151.042.042.093.064.151.064h.857v.857c0 .058.021.108.064.151.042.042.093.064.151.064h.429c.058 0 .108-.021.151-.064.042-.042.064-.093.064-.151v-.857h.857c.058 0 .108-.021.151-.064.042-.042.064-.093.064-.151m.727-1.505c.23.394.345.824.345 1.291 0 .467-.115.897-.345 1.291-.23.394-.542.706-.936.936-.394.23-.824.345-1.291.345-.466 0-.897-.115-1.291-.345-.394-.23-.706-.542-.936-.936-.23-.394-.345-.824-.345-1.291 0-.467.115-.897.345-1.291.23-.394.542-.706.936-.936.394-.23.824-.345 1.291-.345.466 0 .897.115 1.291.345.394.23.706.542.936.936" transform="matrix(2.52776 0 0 2.52776-2.37-7.63)" fill="#798286" />
</svg>
