<svg xmlns="http://www.w3.org/2000/svg" width="13" height="13">
	<path d="m1.403 8.743l.305-.305-.787-.787-.305.305v.358h.428v.429zm1.751-3.107c0-.049-.025-.074-.074-.074-.022 0-.041.008-.057.023l-1.815 1.815c-.016.016-.023.035-.023.057 0 .049.025.074.074.074.022 0 .041-.008.057-.023l1.815-1.815c.016-.016.023-.035.023-.057m-.181-.643l1.393 1.393-2.786 2.786h-1.393v-1.393zm2.287.321c0 .118-.041.219-.124.301l-.556.556-1.393-1.393.556-.552c.08-.085.181-.127.301-.127.118 0 .22.042.305.127l.787.783c.083.087.124.189.124.305" transform="matrix(2.5628 0 0 2.5628-.481-10.506)" fill="#798286" />
</svg>