<svg xmlns="http://www.w3.org/2000/svg" width="13" height="14">
	<path d="m3.959 6.613c.167-.167.251-.37.251-.606 0-.237-.084-.439-.251-.606-.167-.167-.369-.251-.606-.251-.237 0-.439.084-.606.251-.167.167-.251.369-.251.606 0 .237.084.439.251.606.167.167.369.251.606.251.237 0 .439-.084.606-.251m1.965-.971v.743c0 .027-.009.053-.027.077-.018.025-.04.039-.067.044l-.619.094c-.042.12-.086.222-.131.305.078.112.198.266.358.462.022.027.034.055.034.084 0 .029-.001.055-.03.077-.06.083-.171.203-.332.362-.161.159-.266.238-.315.238-.027 0-.056-.001-.087-.03l-.462-.361c-.098.051-.2.094-.305.127-.036.304-.068.511-.097.623-.016.063-.056.094-.12.094h-.743c-.031 0-.059-.009-.082-.028-.023-.019-.036-.043-.039-.072l-.094-.616c-.109-.036-.21-.077-.301-.124l-.472.358c-.022.02-.05.03-.084.03-.031 0-.059-.012-.084-.037-.281-.255-.465-.442-.552-.562-.016-.022-.023-.048-.023-.077 0-.027.009-.052.027-.077.034-.047.091-.121.171-.223.08-.102.141-.18.181-.236-.06-.112-.106-.222-.137-.332l-.613-.09c-.029-.005-.052-.018-.07-.042-.018-.023-.027-.05-.027-.079v-.743c0-.027.009-.053.027-.077.018-.025.039-.039.064-.043l.623-.094c.031-.103.075-.206.131-.308-.089-.127-.209-.281-.358-.462-.022-.027-.033-.054-.033-.08 0-.022.001-.048.03-.077.058-.08.168-.2.33-.36.162-.16.267-.239.316-.239.029 0 .058.011.087.034l.462.358c.098-.051.2-.094.305-.127.036-.304.068-.511.097-.623.016-.062.056-.094.121-.094h.743c.031 0 .059.001.082.028.023.019.036.043.038.072l.094.616c.109.036.21.077.301.124l.476-.358c.02-.02.047-.03.08-.03.029 0 .057.011.084.034.288.266.472.455.552.569.016.018.023.042.023.074 0 .027-.009.052-.027.077-.034.047-.091.121-.171.223-.08.102-.141.18-.181.236.058.112.104.221.137.328l.613.094c.029.004.052.018.07.042.018.023.027.05.027.079" transform="matrix(2.52776 0 0 2.52777-1.975-8.183)" fill="#798286" />
</svg>
