<svg xmlns="http://www.w3.org/2000/svg" width="13" height="14">
	<path d="m6.934 6.73c0 .011-.0001.019-.003.023-.143.598-.442 1.083-.897 1.455-.455.372-.989.558-1.601.558-.326 0-.641-.061-.946-.184-.305-.123-.576-.298-.815-.526l-.432.432c-.042.042-.093.064-.151.064-.058 0-.108-.021-.151-.064-.042-.042-.064-.093-.064-.151v-1.5c0-.058.021-.108.064-.151.042-.042.093-.064.151-.064h1.5c.058 0 .108.021.151.064.042.042.064.093.064.151 0 .058-.021.108-.064.151l-.459.459c.158.147.338.261.539.341.201.08.41.12.626.12.299 0 .578-.073.837-.218.259-.145.466-.345.623-.599.025-.038.084-.169.177-.392.018-.051.051-.077.101-.077h.643c.029 0 .054.011.075.032.021.021.032.046.032.075m.084-2.679v1.5c0 .058-.021.108-.064.151-.042.042-.093.064-.151.064h-1.5c-.058 0-.108-.021-.151-.064-.042-.042-.064-.093-.064-.151 0-.058.021-.108.064-.151l.462-.462c-.33-.306-.72-.459-1.169-.459-.299 0-.578.073-.837.218-.259.145-.466.345-.623.599-.025.038-.084.168-.177.392-.018.051-.051.077-.101.077h-.666c-.029 0-.054-.011-.075-.032-.021-.021-.032-.046-.032-.075v-.023c.145-.598.447-1.083.904-1.455.458-.372.993-.557 1.607-.557.326 0 .643.062.951.186.308.124.582.298.82.524l.435-.432c.042-.042.093-.064.151-.064.058 0 .108.021.151.064.042.042.064.093.064.151" transform="matrix(2.52777 0 0 2.52776-4.74-8.657)" fill="#798286" />
</svg>
