<svg xmlns="http://www.w3.org/2000/svg" width="24" height="48">
	<g transform="translate(0-1004.36)">
		<path d="m11.267 1021.69v-12.259q0-.168-.108-.275-.108-.107-.275-.107h-5.746q-.168 0-.275.107-.108.107-.108.275v12.259q0 .168.108.275.108.107.275.107h5.746q.168 0 .275-.107.108-.107.108-.275m8.04-4.597v-7.662q0-.168-.108-.275-.108-.107-.275-.107h-5.746q-.168 0-.275.107-.108.107-.108.275v7.662q0 .168.108.275.108.107.275.107h5.746q.168 0 .275-.107.108-.107.108-.275m1.915-9.194v16.856q0 .311-.227.539-.227.227-.539.227h-16.856q-.311 0-.539-.227-.227-.228-.227-.539v-16.856q0-.311.227-.539.227-.228.539-.228h16.856q.311 0 .539.228.227.227.227.539" fill="#bbb" />
		<path d="m11.267 1045.76v-12.259q0-.168-.108-.275-.108-.108-.275-.108h-5.746q-.168 0-.275.108-.108.108-.108.275v12.259q0 .168.108.275.108.108.275.108h5.746q.168 0 .275-.108.108-.108.108-.275m8.04-4.597v-7.662q0-.168-.108-.275-.108-.108-.275-.108h-5.746q-.168 0-.275.108-.108.108-.108.275v7.662q0 .168.108.275.108.108.275.108h5.746q.168 0 .275-.108.108-.107.108-.275m1.915-9.194v16.856q0 .311-.227.539-.227.227-.539.227h-16.856q-.311 0-.539-.227-.227-.228-.227-.539v-16.856q0-.311.227-.539.227-.228.539-.228h16.856q.311 0 .539.228.227.227.227.539" fill="#78b2f2" />
	</g>
</svg>
